<svg width="26" height="24" viewBox="0 0 26 24" fill="none" xmlns="http://www.w3.org/2000/svg">
<g clip-path="url(#clip0_66_1289)">
<path d="M24.9206 0L14.1934 8.1279L16.1882 3.3379L24.9206 0Z" fill="#E17726"/>
<path d="M1.10454 0.00958252L9.81362 3.33848L11.7078 8.19128L1.10454 0.00958252ZM20.6035 17.2858L25.3448 17.3782L23.6877 23.1424L17.9023 21.5113L20.6035 17.2858ZM5.39634 17.2858L8.08745 21.5113L2.31177 23.1425L0.664795 17.3782L5.39634 17.2858Z" fill="#E27625"/>
<path d="M11.4504 6.95523L11.6441 13.3635L5.84619 13.0934L7.49541 10.5456L7.51631 10.5211L11.4504 6.95523ZM14.4897 6.88373L18.4839 10.5213L18.5046 10.5457L20.1538 13.0935L14.3571 13.3635L14.4897 6.88373ZM8.25742 17.3044L11.4232 19.8303L7.7457 21.6484L8.25742 17.3044ZM17.7434 17.304L18.2444 21.6485L14.5771 19.8301L17.7434 17.304Z" fill="#E27625"/>
<path d="M14.6579 19.5922L18.3793 21.4374L14.9177 23.122L14.9536 22.0086L14.6579 19.5922ZM11.3408 19.593L11.0567 21.9904L11.0801 23.1207L7.61035 21.4374L11.3408 19.593Z" fill="#D5BFB2"/>
<path d="M10.2664 14.1999L11.2388 16.2927L7.92798 15.2995L10.2664 14.1999ZM15.7336 14.2001L18.0831 15.2995L14.7614 16.2924L15.7336 14.2001Z" fill="#233447"/>
<path d="M8.5103 17.283L7.97515 21.787L5.10669 17.3815L8.5103 17.283ZM17.4898 17.2831L20.8935 17.3815L18.0143 21.7872L17.4898 17.2831ZM20.2374 12.8387L17.7604 15.4238L15.8505 14.5301L14.9362 16.4985L14.3368 13.1136L20.2374 12.8387ZM5.76118 12.8387L11.663 13.1136L11.0635 16.4985L10.149 14.5304L8.24927 15.4239L5.76118 12.8387Z" fill="#CC6228"/>
<path d="M5.59424 12.3082L8.39678 15.2203L8.49385 18.0952L5.59424 12.3082ZM20.4084 12.303L17.5035 18.1003L17.6129 15.2203L20.4084 12.303ZM11.526 12.4856L11.6388 13.2126L11.9175 15.0237L11.7383 20.5862L10.8911 16.1177L10.8908 16.0715L11.526 12.4856ZM14.4724 12.4755L15.1092 16.0715L15.1089 16.1177L14.2596 20.5974L14.226 19.4769L14.0935 14.9907L14.4724 12.4755Z" fill="#E27525"/>
<path d="M17.8622 15.1046L17.7673 17.6024L14.8109 19.9611L14.2132 19.5287L14.8832 15.9952L17.8622 15.1046ZM8.14819 15.1046L11.1168 15.9952L11.7868 19.5287L11.1891 19.9611L8.23257 17.6022L8.14819 15.1046Z" fill="#F5841F"/>
<path d="M7.04468 20.8858L10.8271 22.721L10.8111 21.9373L11.1276 21.6528H14.8711L15.1991 21.9363L15.1749 22.7194L18.9333 20.8904L17.1044 22.438L14.893 23.9933H11.0972L8.88726 22.4316L7.04468 20.8858Z" fill="#C0AC9D"/>
<path d="M14.3871 19.3479L14.9218 19.7348L15.2352 22.2952L14.7817 21.9031H11.2196L10.7747 22.3031L11.0778 19.735L11.6127 19.3479H14.3871Z" fill="#161616"/>
<path d="M24.2123 0.224976L25.5 4.18068L24.6958 8.18038L25.2685 8.63268L24.4936 9.23807L25.076 9.69868L24.3048 10.4178L24.7782 10.7689L23.5218 12.2715L18.3685 10.735L18.3238 10.7105L14.6103 7.50268L24.2123 0.224976ZM1.7877 0.224976L11.3898 7.50268L7.67617 10.7105L7.63154 10.735L2.47822 12.2715L1.22178 10.7689L1.69482 10.4181L0.924121 9.69868L1.50537 9.23857L0.718848 8.63148L1.31309 8.17888L0.5 4.18088L1.7877 0.224976Z" fill="#763E1A"/>
<path d="M18.1163 10.399L23.5766 12.0269L25.3505 17.6255H20.6704L17.4458 17.6671L19.7909 12.9863L18.1163 10.399ZM7.8835 10.399L6.20859 12.9863L8.554 17.6671L5.33086 17.6255H0.65918L2.42314 12.027L7.8835 10.399ZM16.4554 3.31122L14.9281 7.53512L14.604 13.2411L14.48 15.0296L14.4701 19.5984H11.5296L11.52 15.0382L11.3956 13.2396L11.0714 7.53512L9.54434 3.31122H16.4554Z" fill="#F5841F"/>
</g>
<defs>
<clipPath id="clip0_66_1289">
<rect width="25" height="24" fill="white" transform="translate(0.5)"/>
</clipPath>
</defs>
</svg>
